<?xml version="1.0" encoding="UTF-8" standalone="no"?>
<svg
   width="50.464184mm"
   height="21.492809mm"
   viewBox="0 0 50.464184 21.492809"
   version="1.1"
   id="svg1"
   xmlns="http://www.w3.org/2000/svg">
<g transform="matrix(0.26458333,0,0,0.26458334,-40.49755,-120.70575)">
<g transform="translate(-0.19316467,2.8020368)">
<path
   d="m 248.90991,503.79862 -13.72513,-13.72514 2.37861,-2.37861 11.40736,11.40753 5.36462,-5.36496 -12.09455,-12.09454 -1.63789,1.63789 10.45682,10.45665 -2.089,2.08901 -13.72513,-13.72532 13.72513,-13.7253 13.72531,13.7253 -2.37861,2.37879 -11.40754,-11.40736 -5.36479,5.36461 12.0949,12.09454 1.63789,-1.63789 -10.45682,-10.45665 2.08882,-2.08865 13.72531,13.72496 z m 17.06211,-21.69749 -17.00127,-17.00127 -17.00109,17.00127 3.95584,3.95584 -4.01669,4.01651 17.0011,17.00109 17.0011,-17.00109 -3.95567,-3.95583 z"
   style="fill:currentColor;stroke:none;stroke-width:0.173837" />
<path
   d="m 226.09588,471.70811 c -1.88005,0.6432 -3.68048,1.58365 -5.20086,2.88344 v 0 c -3.77748,3.22919 -5.50456,8.39077 -4.96392,13.30444 v 0 c 0.29291,2.6611 1.24623,5.22346 2.85927,7.35557 v 0 c 2.67848,3.54054 6.63867,5.76479 11.04717,6.07579 v 0 c 4.31656,0.30439 8.47091,-1.27753 11.58208,-4.3049 v 0 c 1.31594,-1.28084 2.62928,-2.56428 3.94262,-3.84772 v 0 l -0.007,-0.002 7.19981,-7.04389 -0.012,-0.0115 0.85006,-0.808 0.22408,-0.21955 0.008,-0.002 0.88032,-0.83702 c 2.1514,-2.04607 4.17417,-4.22302 6.48516,-6.09351 v 0 c 3.94837,-3.19617 9.9567,-2.62998 13.35347,1.12438 v 0 c 3.46266,3.82754 3.51203,9.54817 0.14829,13.4569 v 0 c -3.35524,3.89882 -9.23076,4.62737 -13.30706,1.43937 v 0 c -2.14306,-1.67631 -4.01443,-3.64189 -5.96627,-5.52871 v 0 l -3.65857,3.57252 c 0.0634,0.0617 0.1269,0.12325 0.19035,0.18497 v 0 c 0.77619,0.75306 1.5501,1.50838 2.32559,2.26231 v 0 c 0.70178,0.68266 1.40408,1.36514 2.11073,2.04276 v 0 c 0.35706,0.34281 0.70839,0.71151 1.08961,1.02599 v 0 c 5.55393,4.58112 13.84283,4.76487 19.39988,0.0932 v 0 c 5.88473,-4.9474 7.11411,-13.94035 2.78731,-20.32103 v 0 c -2.5528,-3.76462 -6.57852,-6.14236 -11.07048,-6.56861 v 0 c -4.37565,-0.4153 -8.65413,1.07571 -11.82596,4.15575 v 0 c -1.96401,1.90716 -3.91829,3.82477 -5.87691,5.73784 v 0 l -1.75054,1.70969 -0.002,-0.002 -3.6777,3.57861 0.0122,0.0118 -1.38757,1.32655 -0.47753,0.46466 -0.006,-0.002 -0.0569,0.0541 c -2.09769,2.00556 -4.08222,4.12776 -6.32037,5.97947 v 0 c -3.98087,3.29404 -10.05717,2.78122 -13.50801,-1.0538 v 0 c -3.58052,-3.97895 -3.4611,-9.87185 0.18357,-13.76459 v 0 c 3.58748,-3.83155 9.49481,-4.18078 13.48489,-0.77288 v 0 c 1.9136,1.63424 3.6591,3.44684 5.45101,5.21199 v 0 l 3.68744,-3.58453 c -1.58158,-1.5515 -3.15376,-3.11256 -4.76679,-4.63102 v 0 c -3.14089,-2.95627 -6.57504,-4.54984 -10.37043,-4.55002 v 0 c -1.62833,-1.7e-4 -3.32255,0.2931 -5.08977,0.89787"
   style="fill:currentColor;stroke:none;stroke-width:0.173837" />
<text
   xml:space="preserve"
   x="185.49644"
   y="522.7467"
   style="font-size:1.75302px;stroke-width:0.146085">
<tspan
   style="font-variant:normal;font-weight:700;font-stretch:normal;font-size:13.563px;font-family:Manrope;writing-mode:lr-tb;fill:currentColor;fill-opacity:1;fill-rule:nonzero;stroke:none;stroke-width:0.146085"
   x="185.49644 194.78712 203.33183 213.47699 222.04883 232.24823 242.42052 251.46706 262.33105 272.4762 275.2973 283.86914 292.06393 302.38541"
   y="522.7467"
   id="tspan8">SENTHURON TECH</tspan>
</text>
</g>
</g>
</svg>